<?xml version="1.0" encoding="UTF-8"?>
<svg id="Capa_2" data-name="Capa 2" xmlns="http://www.w3.org/2000/svg" viewBox="0 0 100.28 82.45">
  <defs>
    <style>
      .cls-1 {
        fill: blue;
      }

      .cls-2 {
        fill: #f9f4dc;
      }
    </style>
  </defs>
  <g id="Capa_1-2" data-name="Capa 1">
    <g>
      <rect class="cls-1" width="100.28" height="82.45" rx="11.89" ry="11.89"/>
      <path class="cls-2" d="M83.98,74.02h-.58c-.3,0-.54-.14-.71-.43l-3.48-5.9c-.11-.17-.16-.34-.16-.49,0-.19.07-.36.21-.51.14-.15.32-.23.54-.23.29,0,.49.11.62.34l3.26,5.51,3.24-5.51c.14-.22.36-.34.64-.34.22,0,.4.08.54.23.14.15.21.32.21.51,0,.15-.05.31-.16.49l-3.48,5.9c-.17.29-.41.44-.71.44Z"/>
      <g>
        <path class="cls-2" d="M22.16,52.59h-4.2l-.29-5.67h-1.44l-.25,5.67h-4.24l2.44-25.13h5.53l2.44,25.13ZM17.06,33.27h-.18l-.5,10.27h1.15l-.47-10.27Z"/>
        <path class="cls-2" d="M32.64,47.71c0,3.52-1.08,5.42-2.98,5.42-1.29,0-2.15-.9-2.62-2.51h-.11v9.51h-4.02v-26.93h3.2l.47,2.01h.14c.5-1.62,1.58-2.55,2.91-2.55,1.9,0,3.02,1.94,3.02,5.46v9.59ZM28.62,48.28v-10.77c0-1.04-.25-1.47-.75-1.47-.58,0-.93.57-.93,1.76v10.23c0,1.18.36,1.69.93,1.69.5,0,.75-.4.75-1.44Z"/>
        <path class="cls-2" d="M43.52,47.71c0,3.52-1.08,5.42-2.98,5.42-1.29,0-2.15-.9-2.62-2.51h-.11v9.51h-4.02v-26.93h3.2l.47,2.01h.14c.5-1.62,1.58-2.55,2.91-2.55,1.9,0,3.02,1.94,3.02,5.46v9.59ZM39.5,48.28v-10.77c0-1.04-.25-1.47-.75-1.47-.58,0-.93.57-.93,1.76v10.23c0,1.18.36,1.69.93,1.69.5,0,.75-.4.75-1.44Z"/>
      </g>
      <g>
        <path class="cls-2" d="M17.27,13.52c0,.25.01.34.01.41,0,.68-.17.99-.62,1.16-.35.12-.83.16-1.81.16-1.64,0-2.18-.05-2.54-.23-.32-.16-.46-.41-.51-.9-.02-.19-.03-.55-.03-1.06,0-1,.03-1.35.14-1.59.25-.54.72-.65,2.94-.65,1.11,0,1.51.04,1.81.18.39.19.54.5.54,1.21v.21h-1.31c-.01-.25-.03-.31-.08-.38-.08-.11-.44-.15-1.33-.15-.82,0-1.06.03-1.19.13-.15.13-.21.38-.21,1.03,0,1.1.02,1.12,1.4,1.12s1.46,0,1.46-.65h1.32Z"/>
        <path class="cls-2" d="M21.56,12.32c.3.23.39.5.39,1.27,0,.84-.08,1.13-.36,1.36-.29.24-.67.3-1.8.3s-1.52-.06-1.81-.3c-.28-.23-.36-.52-.36-1.4,0-.72.09-1.01.39-1.23.28-.21.73-.28,1.77-.28s1.48.07,1.77.28ZM18.77,13.67c0,.4.05.54.24.62.15.07.41.1.79.1.87,0,1.01-.11,1.01-.75,0-.4-.06-.55-.26-.64-.14-.06-.42-.1-.76-.1-.87,0-1.03.12-1.03.77Z"/>
        <path class="cls-2" d="M23.45,12.12v.46h.06c.21-.39.55-.54,1.3-.54s1.1.1,1.38.38c.28.29.34.52.34,1.36v1.39h-1.14v-1.39c0-.49-.02-.6-.14-.72-.12-.12-.34-.17-.77-.17s-.65.06-.78.2c-.14.15-.17.29-.17.85v1.22h-1.14v-3.05h1.08Z"/>
        <path class="cls-2" d="M28.5,11.42v.7h1.81v.82h-1.81v.89c0,.32,0,.37.05.45.06.11.17.16.4.16s.36-.05.41-.16c.04-.07.04-.1.04-.41h1.05c-.01.58-.06.77-.23.99-.23.29-.58.39-1.37.39-.73,0-1.03-.06-1.25-.28-.16-.15-.22-.32-.24-.64q0-.1,0-.49v-.89h-.6v-.82h.6v-.7h1.14Z"/>
        <path class="cls-2" d="M31.85,12.12v.46h.06c.21-.39.54-.54,1.17-.54.92,0,1.23.31,1.23,1.23v.21h-1.08c0-.45-.13-.57-.6-.57-.26,0-.47.08-.58.22-.11.15-.14.32-.14.79v1.26h-1.14v-3.05h1.08Z"/>
        <path class="cls-2" d="M38.52,12.32c.3.23.39.5.39,1.27,0,.84-.08,1.13-.36,1.36-.29.24-.67.3-1.8.3s-1.52-.06-1.81-.3c-.28-.23-.36-.52-.36-1.4,0-.72.09-1.01.39-1.23.28-.21.73-.28,1.77-.28s1.48.07,1.77.28ZM35.73,13.67c0,.4.05.54.24.62.15.07.41.1.79.1.87,0,1.01-.11,1.01-.75,0-.4-.06-.55-.26-.64-.14-.06-.42-.1-.75-.1-.87,0-1.03.12-1.03.77Z"/>
        <path class="cls-2" d="M40.48,10.87v4.3h-1.14v-4.3h1.14Z"/>
      </g>
    </g>
  </g>
</svg>