<?xml version="1.0" encoding="UTF-8"?>
<svg id="Capa_2" data-name="Capa 2" xmlns="http://www.w3.org/2000/svg" viewBox="0 0 100.28 82.45">
  <defs>
    <style>
      .cls-1 {
        fill: blue;
      }

      .cls-2 {
        fill: #f9f4dc;
      }
    </style>
  </defs>
  <g id="Capa_1-2" data-name="Capa 1">
    <g>
      <rect class="cls-1" width="100.28" height="82.45" rx="11.89" ry="11.89"/>
      <path class="cls-2" d="M83.98,74.02h-.58c-.3,0-.54-.14-.71-.43l-3.48-5.9c-.11-.17-.16-.34-.16-.49,0-.19.07-.36.21-.51.14-.15.32-.23.54-.23.29,0,.49.11.62.34l3.26,5.51,3.24-5.51c.14-.22.36-.34.64-.34.22,0,.4.08.54.23.14.15.21.32.21.51,0,.15-.05.31-.16.49l-3.48,5.9c-.17.29-.41.44-.71.44Z"/>
      <g>
        <path class="cls-2" d="M22.37,35.1c0,2.37-.9,3.81-2.58,4.38v.14c1.76.54,2.69,2.08,2.69,4.38v3.05c0,3.7-2.12,5.46-5.31,5.46h-4.95v-25.13h4.92c3.16,0,5.24,1.69,5.24,5.42v2.3ZM18.14,32.2c0-1.01-.32-1.44-1-1.44h-.68v7.11h.61c.83,0,1.08-.4,1.08-1.65v-4.02ZM18.24,42.89c0-1.15-.36-1.62-1.18-1.62h-.61v7.83h.72c.72,0,1.08-.43,1.08-1.47v-4.74Z"/>
        <path class="cls-2" d="M29.88,52.48l-.39-2.66h-.11c-.54,1.69-1.69,3.23-3.27,3.23-1.76,0-2.84-1.97-2.84-5.49v-1.76c0-3.52,1.08-5.42,2.98-5.42,1.33,0,2.23.9,2.69,2.48h.11v-5.46c0-1.01-.25-1.44-.86-1.44s-.86.39-.86,1.44v2.01h-4.02v-1.44c0-3.59,1.8-5.42,4.85-5.42s4.92,1.87,4.92,5.42v14.5h-3.2ZM29.05,47.45v-2.23c0-.9-.4-1.44-.97-1.44-.54,0-.79.43-.79,1.44v2.94c0,1.04.22,1.47.72,1.47.65,0,1.04-.75,1.04-2.19Z"/>
        <path class="cls-2" d="M38.85,30.22v2.87h1.76v3.41h-1.76v11.38c0,1.08.18,1.22,1.76,1.22v3.41c-4.6,0-5.78-.36-5.78-4.17v-11.85h-1.08v-3.41h1.08v-2.87h4.02Z"/>
        <path class="cls-2" d="M46.9,48.17v-3.16h4.02v2.58c0,3.59-1.8,5.46-4.88,5.46s-4.88-1.87-4.88-5.46v-9.59c0-3.55,1.83-5.42,4.92-5.42s4.85,1.83,4.85,5.42v5.74h-5.75v4.42c0,1.04.25,1.47.86,1.47s.86-.4.86-1.47ZM46.9,37.4c0-1.01-.25-1.44-.86-1.44s-.86.43-.86,1.44v3.48h1.72v-3.48Z"/>
        <path class="cls-2" d="M55.48,33.13l.25,3.3h.07c.07-3.23,1.44-3.3,3.59-3.3v4.2c-2.51,0-3.34.61-3.34,2.66v12.53h-4.02v-19.39h3.45Z"/>
        <path class="cls-2" d="M60.32,33.13h4.02v19.39h-4.02v-19.39ZM61.04,31.69l1.15-4.92h3.12l-1.69,4.92h-2.58Z"/>
        <path class="cls-2" d="M72.06,52.48l-.39-2.66h-.11c-.54,1.69-1.69,3.23-3.27,3.23-1.76,0-2.84-1.97-2.84-5.49v-1.76c0-3.52,1.08-5.42,2.98-5.42,1.33,0,2.23.9,2.69,2.48h.11v-5.46c0-1.01-.25-1.44-.86-1.44s-.86.39-.86,1.44v2.01h-4.02v-1.44c0-3.59,1.8-5.42,4.85-5.42s4.92,1.87,4.92,5.42v14.5h-3.2ZM71.24,47.45v-2.23c0-.9-.4-1.44-.97-1.44-.54,0-.79.43-.79,1.44v2.94c0,1.04.22,1.47.72,1.47.65,0,1.04-.75,1.04-2.19Z"/>
      </g>
      <g>
        <path class="cls-2" d="M11.87,10.8h3.1c1.1,0,1.25,0,1.61.08.43.08.71.33.84.73.1.3.12.58.12,1.28,0,1.12-.1,1.56-.41,1.85-.33.3-.71.36-2.16.36h-3.1v-4.3ZM14.99,14c1.19,0,1.27-.06,1.27-1.04,0-.53-.04-.77-.17-.91-.14-.15-.31-.18-1.11-.18h-1.81v2.13h1.83Z"/>
        <path class="cls-2" d="M21.05,15.1v-.46h-.06c-.17.39-.54.54-1.3.54-.71,0-1.09-.11-1.36-.39-.28-.28-.33-.52-.33-1.34v-1.4h1.14v1.4c0,.44.03.58.16.7.14.13.31.17.74.17.41,0,.61-.04.75-.17.16-.14.2-.3.2-.88v-1.23h1.14v3.05h-1.08Z"/>
        <path class="cls-2" d="M23.72,12.05v.46h.06c.21-.39.54-.54,1.17-.54.92,0,1.23.31,1.23,1.23v.21h-1.08c0-.45-.13-.58-.6-.58-.26,0-.47.08-.58.22-.11.15-.14.32-.14.79v1.26h-1.14v-3.05h1.08Z"/>
        <path class="cls-2" d="M26.51,13c.03-.44.16-.66.5-.84.26-.14.79-.2,1.74-.2,1.01,0,1.24.04,1.5.3.19.21.26.44.26.99v1.84h-1.1v-.42h-.05c-.09.19-.2.3-.4.39-.19.08-.48.11-1.24.11-.61,0-.9-.07-1.11-.26-.15-.14-.22-.37-.22-.7,0-.55.21-.85.65-.97.27-.07.57-.09,1.41-.09.53,0,.68.04.86.24h.05v-.16c0-.47-.09-.54-.78-.54-.82,0-.9.03-.94.3h-1.14ZM27.7,13.87c-.11.05-.17.14-.17.25,0,.25.17.32.79.32.8,0,1.03-.08,1.03-.35,0-.12-.06-.21-.19-.26-.08-.03-.25-.04-.74-.04-.39,0-.63.03-.72.07Z"/>
        <path class="cls-2" d="M35.09,13.87c-.02.51-.08.73-.28.93-.29.3-.67.37-1.87.37-.94,0-1.33-.06-1.63-.28-.3-.21-.39-.54-.39-1.34,0-.74.09-1.06.36-1.28.29-.24.69-.31,1.72-.31s1.46.08,1.75.32c.25.19.33.43.35,1.01h-1.16c-.04-.35-.26-.46-.94-.46-.79,0-.94.12-.94.76,0,.39.06.55.26.63.13.06.39.1.7.1.67,0,.87-.09.92-.44h1.16Z"/>
        <path class="cls-2" d="M36.65,10.8v.86h-1.14v-.86h1.14ZM36.65,12.05v3.05h-1.14v-3.05h1.14Z"/>
        <path class="cls-2" d="M41.01,12.25c.3.23.39.5.39,1.27,0,.84-.08,1.13-.36,1.36-.29.24-.67.3-1.8.3s-1.52-.06-1.81-.3c-.28-.23-.36-.52-.36-1.4,0-.72.09-1.01.39-1.23.28-.21.73-.28,1.77-.28s1.48.07,1.77.28ZM38.22,13.6c0,.4.05.54.24.62.15.07.41.1.79.1.87,0,1.01-.11,1.01-.75,0-.4-.06-.55-.26-.64-.14-.06-.42-.1-.76-.1-.87,0-1.03.12-1.03.77ZM39.94,10.07l.58.78-1.61.93-.3-.39,1.34-1.32Z"/>
        <path class="cls-2" d="M42.9,12.05v.46h.06c.21-.39.55-.54,1.3-.54s1.1.1,1.38.38c.28.29.34.52.34,1.36v1.39h-1.14v-1.39c0-.49-.02-.6-.14-.72-.12-.12-.34-.17-.77-.17s-.65.06-.78.2c-.14.15-.17.29-.17.85v1.22h-1.14v-3.05h1.08Z"/>
      </g>
    </g>
  </g>
</svg>