<?xml version="1.0" encoding="UTF-8"?>
<svg id="Capa_2" data-name="Capa 2" xmlns="http://www.w3.org/2000/svg" viewBox="0 0 100.28 82.45">
  <defs>
    <style>
      .cls-1 {
        fill: blue;
      }

      .cls-2 {
        fill: #f9f4dc;
      }
    </style>
  </defs>
  <g id="Capa_1-2" data-name="Capa 1">
    <g>
      <rect class="cls-1" width="100.28" height="82.45" rx="11.89" ry="11.89"/>
      <g>
        <path class="cls-2" d="M11.55,10.99v4.2h-1.34v-4.2h1.34Z"/>
        <path class="cls-2" d="M13.15,12.21v.45h.06c.2-.38.54-.53,1.27-.53s1.08.1,1.34.37c.27.28.33.51.33,1.33v1.35h-1.11v-1.35c0-.48-.02-.59-.14-.7-.12-.12-.33-.16-.75-.16s-.63.06-.76.19c-.14.14-.16.28-.16.83v1.19h-1.11v-2.98h1.05Z"/>
        <path class="cls-2" d="M17.68,12.21v.45h.06c.2-.38.54-.53,1.27-.53s1.08.1,1.34.37c.27.28.33.51.33,1.33v1.35h-1.11v-1.35c0-.48-.02-.59-.14-.7-.12-.12-.33-.16-.75-.16s-.63.06-.76.19c-.14.14-.16.28-.16.83v1.19h-1.11v-2.98h1.05Z"/>
        <path class="cls-2" d="M24.91,12.41c.3.22.38.49.38,1.24,0,.82-.08,1.1-.35,1.32-.28.23-.65.3-1.76.3s-1.49-.06-1.77-.3c-.28-.23-.35-.5-.35-1.37,0-.7.09-.98.38-1.2.28-.2.71-.27,1.73-.27s1.45.07,1.72.27ZM22.19,13.73c0,.39.05.52.23.6.14.07.4.1.77.1.84,0,.99-.11.99-.74,0-.39-.06-.54-.25-.62-.14-.06-.41-.09-.74-.09-.85,0-1,.11-1,.75Z"/>
        <path class="cls-2" d="M26.6,12.21l.93,2.12.92-2.12h1.27l-1.47,2.98h-1.44l-1.47-2.98h1.27Z"/>
        <path class="cls-2" d="M29.82,13.15c.03-.43.16-.64.49-.82.26-.14.77-.19,1.69-.19.98,0,1.21.04,1.46.3.19.2.25.43.25.97v1.79h-1.07v-.41h-.05c-.09.19-.19.29-.39.38-.19.08-.47.11-1.21.11-.6,0-.88-.07-1.08-.25-.14-.14-.21-.36-.21-.68,0-.54.2-.83.64-.95.26-.07.56-.09,1.38-.09.52,0,.67.04.84.23h.05v-.16c0-.46-.09-.52-.76-.52-.8,0-.88.03-.91.3h-1.11ZM30.97,14c-.11.05-.16.14-.16.25,0,.25.17.31.77.31.78,0,1-.07,1-.34,0-.12-.06-.21-.18-.25-.08-.03-.24-.04-.72-.04-.38,0-.61.03-.7.07Z"/>
        <path class="cls-2" d="M38.31,15.19h-1.05v-.39h-.06c-.21.36-.51.47-1.32.47s-1.19-.08-1.45-.32c-.25-.23-.32-.53-.32-1.27s.12-1.11.43-1.32c.27-.18.58-.23,1.35-.23s1.04.1,1.25.48h.04v-1.62h1.11v4.2ZM35.23,13.67c0,.66.13.76.96.76.4,0,.69-.04.83-.13.13-.08.18-.24.18-.59,0-.62-.14-.74-.94-.74-.88,0-1.03.1-1.03.7Z"/>
        <path class="cls-2" d="M42.57,12.41c.3.22.38.49.38,1.24,0,.82-.08,1.1-.35,1.32-.28.23-.65.3-1.76.3s-1.49-.06-1.77-.3c-.28-.23-.35-.5-.35-1.37,0-.7.09-.98.38-1.2.28-.2.71-.27,1.73-.27s1.45.07,1.72.27ZM39.85,13.73c0,.39.05.52.23.6.14.07.4.1.77.1.84,0,.99-.11.99-.74,0-.39-.06-.54-.25-.62-.14-.06-.41-.09-.74-.09-.85,0-1,.11-1,.75Z"/>
        <path class="cls-2" d="M44.43,12.21v.45h.06c.21-.38.52-.52,1.15-.52.9,0,1.2.3,1.2,1.2v.2h-1.05c0-.44-.13-.56-.59-.56-.25,0-.46.07-.57.21-.11.15-.14.31-.14.77v1.23h-1.11v-2.98h1.05Z"/>
      </g>
      <path class="cls-2" d="M83.98,74.02h-.58c-.3,0-.54-.14-.71-.43l-3.48-5.9c-.11-.17-.16-.34-.16-.49,0-.19.07-.36.21-.51.14-.15.32-.23.54-.23.29,0,.49.11.62.34l3.26,5.51,3.24-5.51c.14-.22.36-.34.64-.34.22,0,.4.08.54.23.14.15.21.32.21.51,0,.15-.05.31-.16.49l-3.48,5.9c-.17.29-.41.44-.71.44Z"/>
      <g>
        <path class="cls-2" d="M20.54,46.42c0,3.61-2.03,5.33-5.16,5.33h-4.84v-24.56h4.84c3.09,0,5.16,1.65,5.16,5.3v13.93ZM16.4,31.9c0-.98-.32-1.4-1.02-1.4h-.7v17.93h.7c.7,0,1.02-.42,1.02-1.44v-15.09Z"/>
        <path class="cls-2" d="M21.7,27.55h3.93v4.39h-3.93v-4.39ZM21.7,32.81h3.93v18.95h-3.93v-18.95Z"/>
        <path class="cls-2" d="M32.26,38.6v-2.6c0-.81-.32-1.09-.77-1.09-.49,0-.81.28-.81,1.12v1.58c0,1.12,1.09,2.17,2.28,3.19,1.54,1.37,3.26,2.95,3.26,5.4v1.4c0,2.74-1.89,4.67-4.74,4.67s-4.77-1.93-4.77-4.7v-2.32h3.93v3.26c0,.84.32,1.12.84,1.12.46,0,.81-.28.81-1.12v-2.21c0-1.23-1.37-2.46-2.74-3.65-1.44-1.23-2.81-2.74-2.81-4.91v-.77c0-2.81,1.82-4.7,4.74-4.7s4.7,1.93,4.7,4.7v1.61h-3.93Z"/>
        <path class="cls-2" d="M42.89,47.51v-3.09h3.93v2.53c0,3.51-1.75,5.33-4.77,5.33s-4.77-1.83-4.77-5.33v-9.37c0-3.47,1.79-5.3,4.81-5.3s4.74,1.79,4.74,5.3v5.61h-5.61v4.31c0,1.02.25,1.44.84,1.44s.84-.39.84-1.44ZM42.89,36.99c0-.98-.25-1.4-.84-1.4s-.84.42-.84,1.4v3.4h1.68v-3.4Z"/>
        <path class="cls-2" d="M53.48,51.76v-14.74c0-1.02-.25-1.44-.74-1.44-.56,0-.91.56-.91,1.72v14.45h-3.93v-18.95h3.12l.46,1.97h.14c.49-1.58,1.54-2.49,2.84-2.49,1.86,0,2.95,1.89,2.95,5.33v14.14h-3.93ZM56.04,27.23c0,2.84-.6,4.17-1.68,4.17-.67,0-1.23-.39-1.79-1.02l-.11-.14c-.46-.46-.81-.74-1.12-.74-.42,0-.63.42-.63,1.3v.46h-1.23v-.46c0-2.7.6-4.21,1.75-4.21.6,0,1.12.35,1.68.95l.11.11c.46.49.88.77,1.23.77.42,0,.63-.39.63-1.19v-.53h1.16v.53Z"/>
        <path class="cls-2" d="M68.04,46.95c0,3.51-1.75,5.33-4.77,5.33s-4.77-1.83-4.77-5.33v-9.37c0-3.47,1.79-5.3,4.81-5.3s4.74,1.79,4.74,5.3v9.37ZM64.11,36.99c0-.98-.25-1.4-.84-1.4s-.84.42-.84,1.4v10.53c0,1.02.25,1.44.84,1.44s.84-.39.84-1.44v-10.53Z"/>
      </g>
    </g>
  </g>
</svg>