<?xml version="1.0" encoding="UTF-8"?>
<svg id="Capa_2" data-name="Capa 2" xmlns="http://www.w3.org/2000/svg" viewBox="0 0 187.88 173.36">
  <defs>
    <style>
      .cls-1 {
        fill: #d119af;
      }

      .cls-2 {
        fill: #f9f4dc;
      }
    </style>
  </defs>
  <g id="Capa_1-2" data-name="Capa 1">
    <g>
      <rect class="cls-1" width="187.88" height="173.36" rx="23.6" ry="23.6"/>
      <g>
        <path class="cls-2" d="M26.77,29.7v1.83h-3.19v5.34h-2.29v-5.34h-3.19v-1.83h8.67Z"/>
        <path class="cls-2" d="M32.53,35.25c-.14,1.41-.84,1.75-3.55,1.75-1.47,0-2.17-.13-2.63-.47-.49-.38-.64-.88-.64-2.18,0-1.36.15-1.87.69-2.24.49-.34,1.14-.45,2.78-.45s2.27.1,2.73.44c.49.37.68.94.68,2.14,0,.06,0,.3-.01.52h-4.96c0,.52.05.69.24.83.2.15.6.21,1.29.21,1.21,0,1.44-.09,1.51-.54h1.89ZM30.66,33.7c-.01-.4-.03-.49-.15-.61-.17-.18-.56-.26-1.31-.26-1.28,0-1.58.16-1.6.87h3.06Z"/>
        <path class="cls-2" d="M40.08,34.83c-.03.85-.14,1.21-.47,1.55-.48.49-1.11.62-3.1.62-1.56,0-2.21-.11-2.72-.47-.49-.34-.65-.89-.65-2.23,0-1.22.15-1.76.6-2.13.48-.4,1.15-.52,2.87-.52s2.43.13,2.91.53c.41.32.55.72.58,1.68h-1.93c-.06-.58-.44-.77-1.56-.77-1.32,0-1.57.2-1.57,1.27,0,.64.11.91.43,1.05.23.11.64.16,1.16.16,1.12,0,1.44-.15,1.52-.73h1.93Z"/>
        <path class="cls-2" d="M42.57,31.79v.77h.1c.34-.65.92-.9,2.16-.9s1.84.17,2.29.63c.46.48.56.87.56,2.27v2.31h-1.9v-2.31c0-.82-.03-1-.24-1.19-.2-.2-.57-.28-1.28-.28s-1.07.1-1.3.33c-.24.25-.28.48-.28,1.42v2.03h-1.9v-5.08h1.79Z"/>
        <path class="cls-2" d="M54.9,32.12c.5.38.65.84.65,2.12,0,1.4-.13,1.88-.59,2.26-.48.4-1.12.5-3,.5s-2.53-.11-3.02-.5c-.47-.39-.59-.86-.59-2.33,0-1.19.15-1.68.65-2.04.47-.34,1.21-.46,2.94-.46s2.47.12,2.94.46ZM50.26,34.36c0,.67.09.89.4,1.03.25.12.68.17,1.31.17,1.44,0,1.69-.18,1.69-1.26,0-.67-.11-.92-.43-1.06-.24-.11-.7-.16-1.26-.16-1.45,0-1.71.19-1.71,1.28Z"/>
        <path class="cls-2" d="M58.16,29.7v7.16h-1.9v-7.16h1.9Z"/>
        <path class="cls-2" d="M65.41,32.12c.5.38.66.84.66,2.12,0,1.4-.13,1.88-.59,2.26-.48.4-1.12.5-3,.5s-2.53-.11-3.02-.5c-.47-.39-.59-.86-.59-2.33,0-1.19.15-1.68.66-2.04.47-.34,1.21-.46,2.94-.46s2.47.12,2.94.46ZM60.78,34.36c0,.67.09.89.4,1.03.25.12.68.17,1.31.17,1.44,0,1.69-.18,1.69-1.26,0-.67-.11-.92-.43-1.06-.24-.11-.7-.16-1.26-.16-1.45,0-1.71.19-1.71,1.28Z"/>
        <path class="cls-2" d="M73.8,31.79v4.67c0,.85-.01.99-.16,1.41-.17.48-.58.88-1.08,1.05-.56.19-1.28.27-2.48.27-1.61,0-2.27-.14-2.75-.56-.34-.3-.5-.69-.56-1.3h1.93l.02.05c.11.39.39.48,1.39.48s1.36-.08,1.59-.33c.18-.2.21-.36.21-1.07v-.45h-.07c-.39.62-.85.79-2.1.79s-1.95-.12-2.39-.43c-.54-.38-.7-.89-.7-2.21s.26-1.92,1.01-2.24c.4-.17,1.1-.26,2.1-.26,1.32,0,1.77.16,2.17.79h.09v-.67h1.79ZM68.54,34.21c0,.98.26,1.16,1.66,1.16.71,0,1.18-.08,1.41-.23.21-.16.29-.38.29-.91,0-.6-.1-.85-.38-.99-.23-.11-.66-.16-1.23-.16-1.47,0-1.75.18-1.75,1.13Z"/>
        <path class="cls-2" d="M76.52,31.79v5.08h-1.9v-5.08h1.9ZM76.39,28.46l1.14,1.08-2.31,1.92-.58-.53,1.75-2.48Z"/>
        <path class="cls-2" d="M77.42,33.38c.05-.73.27-1.09.84-1.4.44-.24,1.31-.33,2.89-.33,1.68,0,2.06.07,2.49.5.32.34.43.73.43,1.65v3.06h-1.83v-.7h-.09c-.15.32-.33.49-.67.64-.32.14-.79.18-2.06.18-1.02,0-1.5-.12-1.85-.43-.25-.24-.37-.61-.37-1.16,0-.91.34-1.42,1.08-1.62.45-.12.96-.15,2.35-.15.88,0,1.14.08,1.43.4h.09v-.27c0-.78-.15-.89-1.3-.89-1.36,0-1.49.04-1.56.5h-1.89ZM79.4,34.83c-.18.09-.28.24-.28.42,0,.42.29.54,1.31.54,1.33,0,1.71-.13,1.71-.58,0-.2-.11-.35-.31-.43-.13-.05-.41-.06-1.23-.06-.64,0-1.04.04-1.19.12Z"/>
      </g>
      <g>
        <path class="cls-2" d="M31.96,59.69h-5.33v14.03h4.51v5.95h-4.51v17.98h-7.39v-43.92h12.72v5.95Z"/>
        <path class="cls-2" d="M33.58,54.43h7.02v7.83h-7.02v-7.83ZM33.58,63.83h7.02v33.84h-7.02v-33.84Z"/>
        <path class="cls-2" d="M50.81,58.75v5.01h3.07v5.95h-3.07v19.86c0,1.88.31,2.13,3.07,2.13v5.95c-8.02,0-10.09-.63-10.09-7.27v-20.68h-1.88v-5.95h1.88v-5.01h7.02Z"/>
        <path class="cls-2" d="M72.68,97.67h-7.33l-.5-9.9h-2.51l-.44,9.9h-7.39l4.26-43.86h9.65l4.26,43.86ZM63.78,63.96h-.31l-.88,17.92h2.01l-.81-17.92Z"/>
        <path class="cls-2" d="M73.5,72.35c0-6.14,1.88-9.46,5.2-9.46,2.26,0,3.82,1.5,4.64,4.39h.19v-16.6h7.02v46.99h-5.58l-.81-3.57h-.25c-.88,2.88-2.82,4.51-5.14,4.51-3.32,0-5.26-3.38-5.26-9.52v-16.73ZM83.52,89.65v-17.86c0-2.07-.63-3.01-1.63-3.01-.94,0-1.38.75-1.38,2.51v18.8c0,1.82.44,2.57,1.38,2.57,1,0,1.63-.94,1.63-3.01Z"/>
        <path class="cls-2" d="M104.01,97.6l-.69-4.64h-.19c-.94,2.94-2.94,5.64-5.7,5.64-3.07,0-4.95-3.45-4.95-9.59v-3.07c0-6.14,1.88-9.46,5.2-9.46,2.32,0,3.88,1.57,4.7,4.32h.19v-9.52c0-1.75-.44-2.51-1.5-2.51s-1.5.69-1.5,2.51v3.51h-7.02v-2.51c0-6.27,3.13-9.46,8.46-9.46s8.58,3.26,8.58,9.46v25.31h-5.58ZM102.57,88.83v-3.89c0-1.57-.69-2.51-1.69-2.51-.94,0-1.38.75-1.38,2.51v5.14c0,1.82.38,2.57,1.25,2.57,1.13,0,1.82-1.32,1.82-3.82Z"/>
        <path class="cls-2" d="M128.51,89.14c0,6.14-1.88,9.46-5.2,9.46-2.26,0-3.76-1.57-4.57-4.39h-.19v16.6h-7.02v-46.99h5.58l.81,3.51h.25c.88-2.82,2.76-4.45,5.08-4.45,3.32,0,5.26,3.38,5.26,9.52v16.73ZM121.49,90.15v-18.8c0-1.82-.44-2.57-1.32-2.57-1,0-1.63,1-1.63,3.07v17.86c0,2.07.63,2.94,1.63,2.94.88,0,1.32-.69,1.32-2.51Z"/>
        <path class="cls-2" d="M138.66,58.75v5.01h3.07v5.95h-3.07v19.86c0,1.88.31,2.13,3.07,2.13v5.95c-8.02,0-10.09-.63-10.09-7.27v-20.68h-1.88v-5.95h1.88v-5.01h7.02Z"/>
      </g>
      <path class="cls-2" d="M161.07,158.71h-.57c-.3,0-.53-.14-.7-.43l-3.43-5.81c-.11-.17-.16-.33-.16-.48,0-.19.07-.36.21-.5s.32-.22.54-.22c.28,0,.49.11.61.33l3.22,5.43,3.2-5.43c.14-.22.35-.33.63-.33.22,0,.4.07.54.22.14.15.21.32.21.5,0,.15-.05.31-.16.48l-3.43,5.81c-.17.29-.41.43-.7.43Z"/>
    </g>
  </g>
</svg>