<?xml version="1.0" encoding="UTF-8"?>
<svg id="Capa_2" data-name="Capa 2" xmlns="http://www.w3.org/2000/svg" viewBox="0 0 100.28 82.45">
  <defs>
    <style>
      .cls-1 {
        fill: blue;
      }

      .cls-2 {
        fill: #f9f4dc;
      }
    </style>
  </defs>
  <g id="Capa_1-2" data-name="Capa 1">
    <g>
      <rect class="cls-1" width="100.28" height="82.45" rx="11.89" ry="11.89"/>
      <path class="cls-2" d="M83.98,74.02h-.58c-.3,0-.54-.14-.71-.43l-3.48-5.9c-.11-.17-.16-.34-.16-.49,0-.19.07-.36.21-.51.14-.15.32-.23.54-.23.29,0,.49.11.62.34l3.26,5.51,3.24-5.51c.14-.22.36-.34.64-.34.22,0,.4.08.54.23.14.15.21.32.21.51,0,.15-.05.31-.16.49l-3.48,5.9c-.17.29-.41.44-.71.44Z"/>
      <g>
        <path class="cls-2" d="M18.3,37.34c0,2.67-1.5,4.12-3.81,4.12h-.52v6.3h-3.06v-18.14h3.58c2.28,0,3.81,1.42,3.81,4.09v3.63ZM15.24,33.09c0-.73-.23-1.04-.75-1.04h-.52v6.97h.52c.52,0,.75-.31.75-1.06v-4.87Z"/>
        <path class="cls-2" d="M21.65,33.76l.18,2.38h.05c.05-2.33,1.04-2.38,2.59-2.38v3.03c-1.81,0-2.41.44-2.41,1.92v9.04h-2.9v-13.99h2.49Z"/>
        <path class="cls-2" d="M31.88,44.2c0,2.59-1.29,3.94-3.52,3.94s-3.52-1.35-3.52-3.94v-6.92c0-2.56,1.32-3.91,3.55-3.91s3.5,1.32,3.5,3.91v6.92ZM28.98,36.84c0-.73-.18-1.04-.62-1.04s-.62.31-.62,1.04v7.77c0,.75.18,1.06.62,1.06s.62-.28.62-1.06v-7.77Z"/>
        <path class="cls-2" d="M44.11,37.34c0,2.67-1.5,4.12-3.81,4.12h-.52v6.3h-3.06v-18.14h3.58c2.28,0,3.81,1.42,3.81,4.09v3.63ZM41.05,33.09c0-.73-.23-1.04-.75-1.04h-.52v6.97h.52c.52,0,.75-.31.75-1.06v-4.87Z"/>
        <path class="cls-2" d="M44.97,28.32h2.9v19.43h-2.9v-19.43Z"/>
        <path class="cls-2" d="M53.44,47.73l-.29-1.92h-.08c-.39,1.22-1.22,2.33-2.36,2.33-1.27,0-2.05-1.42-2.05-3.96v-1.27c0-2.54.78-3.91,2.15-3.91.96,0,1.61.65,1.94,1.79h.08v-3.94c0-.73-.18-1.04-.62-1.04s-.62.29-.62,1.04v1.45h-2.9v-1.04c0-2.59,1.29-3.91,3.5-3.91s3.55,1.35,3.55,3.91v10.47h-2.31ZM52.84,44.1v-1.61c0-.65-.28-1.04-.7-1.04-.39,0-.57.31-.57,1.04v2.12c0,.75.16,1.06.52,1.06.47,0,.75-.54.75-1.58Z"/>
        <path class="cls-2" d="M61.42,48.87c-.39,2.77-.93,3.71-5.26,3.71v-2.46c1.76,0,1.94-.36,1.81-2.2l-1.94-14.17h3.06l.52,8.24.08,1.76h.13l.62-10h3.06l-2.07,15.13Z"/>
        <path class="cls-2" d="M67.9,44.62v-2.28h2.9v1.87c0,2.59-1.29,3.94-3.52,3.94s-3.52-1.35-3.52-3.94v-6.92c0-2.56,1.32-3.91,3.55-3.91s3.5,1.32,3.5,3.91v4.15h-4.15v3.19c0,.75.18,1.06.62,1.06s.62-.28.62-1.06ZM67.9,36.84c0-.73-.18-1.04-.62-1.04s-.62.31-.62,1.04v2.51h1.24v-2.51Z"/>
        <path class="cls-2" d="M74.09,33.76l.18,2.38h.05c.05-2.33,1.04-2.38,2.59-2.38v3.03c-1.81,0-2.41.44-2.41,1.92v9.04h-2.9v-13.99h2.49Z"/>
        <path class="cls-2" d="M81.38,38.04v-1.92c0-.6-.23-.8-.57-.8-.36,0-.6.21-.6.83v1.17c0,.83.8,1.61,1.68,2.36,1.14,1.01,2.41,2.18,2.41,3.99v1.04c0,2.02-1.4,3.45-3.5,3.45s-3.52-1.42-3.52-3.47v-1.71h2.9v2.41c0,.62.23.83.62.83.34,0,.6-.21.6-.83v-1.63c0-.91-1.01-1.81-2.02-2.7-1.06-.91-2.07-2.02-2.07-3.63v-.57c0-2.07,1.35-3.47,3.5-3.47s3.47,1.42,3.47,3.47v1.19h-2.9Z"/>
      </g>
      <g>
        <path class="cls-2" d="M12.04,10.8v1.98c.01.68.01.68.04.86.07.34.32.41,1.44.41.9,0,1.17-.04,1.32-.19.1-.11.13-.23.15-.6,0-.16.01-.38.01-.48v-1.98h1.31v1.98c-.02.97-.03,1.04-.06,1.35-.07.49-.4.83-.89.94-.39.08-.82.1-1.82.1-1.65,0-2.16-.09-2.48-.43-.21-.21-.28-.46-.31-1.05q-.01-.18-.02-.9v-1.98h1.31Z"/>
        <path class="cls-2" d="M17.92,14.13c.02.26.24.34.96.34s.96-.06.96-.28c0-.11-.06-.17-.19-.21q-.09-.02-.97-.03t-1.02-.03c-.62-.09-.86-.35-.86-.91,0-.46.16-.74.5-.88.25-.1.78-.16,1.61-.16,1.04,0,1.42.07,1.68.28.16.13.22.29.25.66h-1.16c-.03-.1-.04-.12-.08-.14-.1-.06-.33-.09-.72-.09-.72,0-.94.06-.94.25,0,.12.09.19.27.2.19.01.39.02,1.56.03.88,0,1.22.26,1.22.95,0,.46-.15.74-.47.88-.27.13-.82.19-1.71.19-1.11,0-1.49-.06-1.76-.32-.19-.17-.26-.38-.27-.74h1.16Z"/>
        <path class="cls-2" d="M21.42,13c.03-.44.16-.66.5-.84.26-.14.79-.2,1.74-.2,1.01,0,1.24.04,1.5.3.19.21.26.44.26.99v1.84h-1.1v-.42h-.05c-.09.19-.2.3-.4.39-.19.08-.48.11-1.24.11-.61,0-.9-.07-1.11-.26-.15-.14-.22-.37-.22-.7,0-.55.21-.85.65-.97.27-.07.57-.09,1.41-.09.53,0,.68.04.86.24h.05v-.16c0-.47-.09-.54-.78-.54-.82,0-.9.03-.94.3h-1.14ZM22.6,13.87c-.11.05-.17.14-.17.25,0,.25.17.32.79.32.8,0,1.03-.08,1.03-.35,0-.12-.06-.21-.19-.26-.08-.03-.25-.04-.74-.04-.39,0-.63.03-.72.07Z"/>
        <path class="cls-2" d="M30.12,15.1h-1.08v-.4h-.06c-.22.37-.52.48-1.35.48s-1.22-.08-1.48-.32c-.25-.23-.33-.54-.33-1.3s.12-1.14.45-1.36c.28-.18.59-.23,1.38-.23s1.06.1,1.28.49h.05v-1.66h1.14v4.3ZM26.96,13.54c0,.68.13.78.99.78.41,0,.71-.04.85-.14.14-.08.19-.25.19-.61,0-.64-.15-.75-.96-.75-.9,0-1.06.1-1.06.72Z"/>
        <path class="cls-2" d="M30.63,13c.03-.44.16-.66.5-.84.26-.14.79-.2,1.74-.2,1.01,0,1.24.04,1.5.3.19.21.26.44.26.99v1.84h-1.1v-.42h-.05c-.09.19-.2.3-.4.39-.19.08-.48.11-1.24.11-.61,0-.9-.07-1.11-.26-.15-.14-.22-.37-.22-.7,0-.55.21-.85.65-.97.27-.07.57-.09,1.41-.09.53,0,.68.04.86.24h.05v-.16c0-.47-.09-.54-.78-.54-.82,0-.9.03-.94.3h-1.14ZM31.82,13.87c-.11.05-.17.14-.17.25,0,.25.17.32.79.32.8,0,1.03-.08,1.03-.35,0-.12-.06-.21-.19-.26-.08-.03-.25-.04-.74-.04-.39,0-.63.03-.72.07Z"/>
        <path class="cls-2" d="M36.16,14.13c.02.26.24.34.96.34s.96-.06.96-.28c0-.11-.06-.17-.19-.21q-.09-.02-.97-.03t-1.02-.03c-.62-.09-.87-.35-.87-.91,0-.46.16-.74.5-.88.25-.1.78-.16,1.61-.16,1.04,0,1.42.07,1.68.28.16.13.22.29.25.66h-1.16c-.03-.1-.04-.12-.08-.14-.1-.06-.33-.09-.72-.09-.72,0-.94.06-.94.25,0,.12.09.19.27.2.19.01.39.02,1.56.03.88,0,1.22.26,1.22.95,0,.46-.15.74-.47.88-.27.13-.82.19-1.71.19-1.11,0-1.49-.06-1.76-.32-.19-.17-.26-.38-.27-.74h1.16Z"/>
        <path class="cls-2" d="M41.24,12.05h1.08v.41h.06c.2-.38.52-.49,1.4-.49.79,0,1.19.09,1.45.34.25.22.32.52.32,1.28,0,1.33-.3,1.59-1.82,1.59-.77,0-1.07-.1-1.29-.47h-.05v1.67h-1.14v-4.32ZM42.39,13.61c0,.59.17.71,1.01.71.43,0,.7-.04.82-.13.14-.09.19-.25.19-.67,0-.59-.16-.7-.97-.7-.92,0-1.05.1-1.05.78Z"/>
        <path class="cls-2" d="M49.83,12.25c.3.23.39.5.39,1.27,0,.84-.08,1.13-.36,1.36-.29.24-.67.3-1.8.3s-1.52-.06-1.81-.3c-.28-.23-.36-.52-.36-1.4,0-.72.09-1.01.39-1.23.28-.21.73-.28,1.77-.28s1.48.07,1.77.28ZM47.04,13.6c0,.4.05.54.24.62.15.07.41.1.79.1.87,0,1.01-.11,1.01-.75,0-.4-.06-.55-.26-.64-.14-.06-.42-.1-.76-.1-.87,0-1.03.12-1.03.77Z"/>
        <path class="cls-2" d="M51.72,12.05v.46h.06c.21-.39.54-.54,1.17-.54.92,0,1.23.31,1.23,1.23v.21h-1.08c0-.45-.13-.58-.6-.58-.26,0-.47.08-.58.22-.11.15-.14.32-.14.79v1.26h-1.14v-3.05h1.08Z"/>
      </g>
    </g>
  </g>
</svg>